FILE "Learn Arabic with Innovative Language's Proven Language System - Level 2꞉ Absolute Beginner Arabic꞉ Absolute Beginner Arabic #6 [B072HSGXWN].m4b" MP3
TRACK 1 AUDIO
  TITLE "Chapter 1"
  INDEX 01 0:00:00
TRACK 2 AUDIO
  TITLE "Chapter 2"
  INDEX 01 10:48:22
TRACK 3 AUDIO
  TITLE "Chapter 3"
  INDEX 01 18:24:74
TRACK 4 AUDIO
  TITLE "Chapter 4"
  INDEX 01 20:47:42
